<?xml version="1.0" encoding="utf-8"?>
<!-- Generator: Adobe Illustrator 19.2.1, SVG Export Plug-In . SVG Version: 6.00 Build 0)  -->
<svg version="1.1" xmlns="http://www.w3.org/2000/svg" xmlns:xlink="http://www.w3.org/1999/xlink" x="0px" y="0px"
	 viewBox="0 0 435.6 350.9" style="enable-background:new 0 0 435.6 350.9;" xml:space="preserve">
<style type="text/css">
	.st0{fill:#E6E6FA;}
	.st1{fill:#FF0076;}
	.st2{fill:#FFA372;}
	.st3{fill:#A59DED;}
	.st4{fill:none;stroke:#FFFFFF;stroke-linecap:round;stroke-linejoin:round;stroke-dasharray:5.0386,5.0386;}
	.st5{fill:#E0E0D9;}
	.st6{fill:#A1B9CE;}
	.st7{fill:#DDE5F4;}
	.st8{fill:#2F2F82;}
	.st9{fill:#2A2772;}
	.st10{fill:#F06E9A;}
	.st11{fill:#FFE6B8;}
	.st12{fill:#1ABFF0;}
	.st13{fill:#B787BC;}
	.st14{fill:#FFFFFF;}
	.st15{fill:#4C459B;}
	.st16{fill:#E44C78;}
	.st17{fill:#FDCE8B;}
	.st18{fill:#00A1D3;}
	.st19{fill:#9E75A2;}
	.st20{fill:#7DCEF3;}
	.st21{fill:#D0A4CB;}
	.st22{fill:#FFF8DB;}
	.st23{fill:#F395BE;}
	.st24{fill:#474FA0;}
</style>
<g id="BACKGROUND">
</g>
<g id="OBJECTS">
	<rect x="-307.4" y="-77.6" class="st0" width="750" height="500"/>
	<ellipse class="st1" cx="142.1" cy="162.5" rx="106.8" ry="91.8"/>
	<ellipse class="st2" cx="225.1" cy="251.1" rx="106.8" ry="91.8"/>
	<ellipse class="st3" cx="286.5" cy="138.2" rx="106.8" ry="91.8"/>
	<g>
		<ellipse class="st4" cx="146.1" cy="179.8" rx="106.8" ry="91.8"/>
	</g>
	<g>
		<ellipse class="st4" cx="225.7" cy="181.4" rx="106.8" ry="91.8"/>
	</g>
	<g>
		<ellipse class="st4" cx="281.5" cy="131.1" rx="106.8" ry="91.8"/>
	</g>
	<g>
		<ellipse class="st4" cx="232.1" cy="259.1" rx="106.8" ry="91.8"/>
	</g>
	<path class="st5" d="M324.7,296.9c0,0,0-0.1,0.1-0.1c0.1-0.2,0.2-0.5,0.2-0.7c0-0.1,0-0.2,0.1-0.3c0.1-0.2,0.1-0.5,0.2-0.7
		c0-0.1,0-0.2,0.1-0.4c0-0.2,0.1-0.4,0.1-0.7c0-0.1,0-0.3,0-0.5c0-0.2,0-0.4,0-0.6c0-0.2,0-0.4,0-0.6c0-0.2,0-0.4,0-0.6
		c0-0.2-0.1-0.5-0.1-0.7c0-0.1,0-0.3-0.1-0.4c-0.1-0.4-0.2-0.8-0.3-1.2L259,53.9c-0.1-0.3-0.2-0.6-0.3-0.9c-0.2-0.6-0.5-1.2-0.9-1.8
		c-0.7-1.1-1.6-2.2-2.7-3.1c-0.5-0.4-1.1-0.8-1.7-1.2c-2.1-1.2-4.5-1.9-6.9-1.8l-52.7,2.5l-52.7,2.5c-0.4,0-0.8,0.1-1.2,0.1
		c-0.1,0-0.2,0-0.3,0.1c-0.3,0.1-0.5,0.1-0.8,0.2c-0.1,0-0.2,0.1-0.4,0.1c-0.3,0.1-0.5,0.2-0.8,0.3c-0.1,0-0.2,0.1-0.3,0.1
		c-0.3,0.2-0.7,0.3-1,0.5c0,0,0,0,0,0c-0.3,0.2-0.6,0.4-0.8,0.6c-0.1,0.1-0.1,0.1-0.2,0.2c-0.2,0.2-0.4,0.4-0.6,0.6
		c-0.1,0.1-0.1,0.1-0.2,0.2c-0.2,0.2-0.4,0.5-0.6,0.7c0,0,0,0-0.1,0.1c-0.2,0.3-0.4,0.6-0.6,0.9c0,0.1-0.1,0.1-0.1,0.2
		c0,0.1-0.1,0.1-0.1,0.2c0,0.1-0.1,0.1-0.1,0.2c0,0.1-0.1,0.1-0.1,0.2c0,0.1-0.1,0.1-0.1,0.2c0,0.1-0.1,0.1-0.1,0.2
		c0,0.1-0.1,0.1-0.1,0.2c0,0.1-0.1,0.1-0.1,0.2c0,0.1-0.1,0.1-0.1,0.2c0,0.1-0.1,0.1-0.1,0.2c0,0.1-0.1,0.1-0.1,0.2
		c0,0.1-0.1,0.1-0.1,0.2c0,0.1-0.1,0.1-0.1,0.2c0,0.1-0.1,0.1-0.1,0.2c0,0.1-0.1,0.1-0.1,0.2c0,0.1-0.1,0.1-0.1,0.2
		c0,0.1-0.1,0.1-0.1,0.2c0,0.1-0.1,0.1-0.1,0.2c0,0.1-0.1,0.1-0.1,0.2c0,0.1-0.1,0.1-0.1,0.2c0,0.1-0.1,0.1-0.1,0.2
		c0,0.1-0.1,0.1-0.1,0.2c0,0.1-0.1,0.1-0.1,0.2c0,0.1-0.1,0.1-0.1,0.2c0,0.1-0.1,0.1-0.1,0.2c0,0.1-0.1,0.1-0.1,0.2
		c0,0.1-0.1,0.1-0.1,0.2c0,0.1-0.1,0.1-0.1,0.2c0,0.1-0.1,0.1-0.1,0.2c0,0.1-0.1,0.1-0.1,0.2c0,0.1-0.1,0.1-0.1,0.2
		c0,0.1-0.1,0.1-0.1,0.2c0,0.1-0.1,0.1-0.1,0.2c0,0.1-0.1,0.1-0.1,0.2c0,0.1-0.1,0.1-0.1,0.2c0,0.1-0.1,0.1-0.1,0.2
		c0,0.1-0.1,0.1-0.1,0.2c0,0.1-0.1,0.1-0.1,0.2c0,0.1-0.1,0.1-0.1,0.2c0,0.1-0.1,0.1-0.1,0.2c-0.9,1.6-1.2,3.5-0.8,5.5L177,309.1
		c1.4,6.9,7.8,12.1,14.3,11.6l121.1-9.6c3.6-0.3,6.2-2.3,7.6-5.2c0-0.1,0.1-0.1,0.1-0.2c0-0.1,0.1-0.1,0.1-0.2
		c0-0.1,0.1-0.1,0.1-0.2c0-0.1,0.1-0.1,0.1-0.2c0-0.1,0.1-0.1,0.1-0.2c0-0.1,0.1-0.1,0.1-0.2c0-0.1,0.1-0.1,0.1-0.2
		c0-0.1,0.1-0.1,0.1-0.2c0-0.1,0.1-0.1,0.1-0.2c0-0.1,0.1-0.1,0.1-0.2c0-0.1,0.1-0.1,0.1-0.2c0-0.1,0.1-0.1,0.1-0.2
		c0-0.1,0.1-0.1,0.1-0.2c0-0.1,0.1-0.1,0.1-0.2c0-0.1,0.1-0.1,0.1-0.2c0-0.1,0.1-0.1,0.1-0.2c0-0.1,0.1-0.1,0.1-0.2
		c0-0.1,0.1-0.1,0.1-0.2c0-0.1,0.1-0.1,0.1-0.2c0-0.1,0.1-0.1,0.1-0.2c0-0.1,0.1-0.1,0.1-0.2c0-0.1,0.1-0.1,0.1-0.2
		c0-0.1,0.1-0.1,0.1-0.2c0-0.1,0.1-0.1,0.1-0.2c0-0.1,0.1-0.1,0.1-0.2c0-0.1,0.1-0.1,0.1-0.2c0-0.1,0.1-0.1,0.1-0.2
		c0-0.1,0.1-0.1,0.1-0.2c0-0.1,0.1-0.1,0.1-0.2c0-0.1,0.1-0.1,0.1-0.2c0-0.1,0.1-0.1,0.1-0.2c0-0.1,0.1-0.1,0.1-0.2
		c0-0.1,0.1-0.1,0.1-0.2c0-0.1,0.1-0.1,0.1-0.2c0-0.1,0.1-0.1,0.1-0.2c0-0.1,0.1-0.1,0.1-0.2c0-0.1,0.1-0.1,0.1-0.2
		c0-0.1,0.1-0.1,0.1-0.2c0-0.1,0.1-0.1,0.1-0.2c0-0.1,0.1-0.1,0.1-0.2c0,0,0,0,0,0C324.5,297.5,324.6,297.2,324.7,296.9z"/>
	<g>
		<path class="st6" d="M322.8,302.9c0-0.1,0.1-0.1,0.1-0.2c0-0.1,0.1-0.1,0.1-0.2c0-0.1,0.1-0.1,0.1-0.2c0-0.1,0.1-0.1,0.1-0.2
			c0-0.1,0.1-0.1,0.1-0.2c0-0.1,0.1-0.1,0.1-0.2c0-0.1,0.1-0.1,0.1-0.2c0-0.1,0.1-0.1,0.1-0.2c0-0.1,0.1-0.1,0.1-0.2
			c0-0.1,0.1-0.1,0.1-0.2c0-0.1,0.1-0.1,0.1-0.2c0-0.1,0.1-0.1,0.1-0.2c0-0.1,0.1-0.1,0.1-0.2c0-0.1,0.1-0.1,0.1-0.2
			c0-0.1,0.1-0.1,0.1-0.2c0-0.1,0.1-0.1,0.1-0.2c0-0.1,0.1-0.1,0.1-0.2c0-0.1,0.1-0.1,0.1-0.2c0-0.1,0.1-0.1,0.1-0.2
			c0-0.1,0.1-0.1,0.1-0.2c0-0.1,0.1-0.1,0.1-0.2c0-0.1,0.1-0.1,0.1-0.2c0-0.1,0.1-0.1,0.1-0.2c0-0.1,0.1-0.1,0.1-0.2
			c0-0.1,0.1-0.1,0.1-0.2c0-0.1,0.1-0.1,0.1-0.2c0-0.1,0.1-0.1,0.1-0.2c0-0.1,0.1-0.1,0.1-0.2c0-0.1,0.1-0.1,0.1-0.2
			c0-0.1,0.1-0.1,0.1-0.2c0-0.1,0.1-0.1,0.1-0.2c0-0.1,0.1-0.1,0.1-0.2c0-0.1,0.1-0.1,0.1-0.2c0-0.1,0.1-0.1,0.1-0.2
			c0-0.1,0.1-0.1,0.1-0.2c0-0.1,0.1-0.1,0.1-0.2c0-0.1,0.1-0.1,0.1-0.2c0-0.1,0.1-0.1,0.1-0.2c0-0.1,0.1-0.1,0.1-0.2
			c1.1-2.3,1.4-5.2,0.5-8.2L261.7,51c-1.4-5.1-7.1-9.1-12.6-8.8l-105.4,5c-3.6,0.2-6.4,2-7.7,4.6c0,0.1-0.1,0.1-0.1,0.2
			c0,0.1-0.1,0.1-0.1,0.2c0,0.1-0.1,0.1-0.1,0.2c0,0.1-0.1,0.1-0.1,0.2c0,0.1-0.1,0.1-0.1,0.2c0,0.1-0.1,0.1-0.1,0.2
			c0,0.1-0.1,0.1-0.1,0.2c0,0.1-0.1,0.1-0.1,0.2c0,0.1-0.1,0.1-0.1,0.2c0,0.1-0.1,0.1-0.1,0.2c0,0.1-0.1,0.1-0.1,0.2
			c0,0.1-0.1,0.1-0.1,0.2c0,0.1-0.1,0.1-0.1,0.2c0,0.1-0.1,0.1-0.1,0.2c0,0.1-0.1,0.1-0.1,0.2c0,0.1-0.1,0.1-0.1,0.2
			c0,0.1-0.1,0.1-0.1,0.2c0,0.1-0.1,0.1-0.1,0.2c0,0.1-0.1,0.1-0.1,0.2c0,0.1-0.1,0.1-0.1,0.2c0,0.1-0.1,0.1-0.1,0.2
			c0,0.1-0.1,0.1-0.1,0.2c0,0.1-0.1,0.1-0.1,0.2c0,0.1-0.1,0.1-0.1,0.2c0,0.1-0.1,0.1-0.1,0.2c0,0.1-0.1,0.1-0.1,0.2
			c0,0.1-0.1,0.1-0.1,0.2c0,0.1-0.1,0.1-0.1,0.2c0,0.1-0.1,0.1-0.1,0.2c0,0.1-0.1,0.1-0.1,0.2c0,0.1-0.1,0.1-0.1,0.2
			c0,0.1-0.1,0.1-0.1,0.2c0,0.1-0.1,0.1-0.1,0.2c0,0.1-0.1,0.1-0.1,0.2c0,0.1-0.1,0.1-0.1,0.2c0,0.1-0.1,0.1-0.1,0.2
			c0,0.1-0.1,0.1-0.1,0.2c0,0.1-0.1,0.1-0.1,0.2c0,0.1-0.1,0.1-0.1,0.2c0,0.1-0.1,0.1-0.1,0.2c-0.9,1.6-1.2,3.5-0.8,5.5l48.8,240.6
			c1.4,6.9,7.8,12.1,14.3,11.6l121.1-9.6c3.6-0.3,6.2-2.3,7.6-5.2C322.8,303,322.8,303,322.8,302.9z"/>
		<g>
			<path class="st7" d="M249.2,42.2l-105.4,5c-5.7,0.3-9.4,4.7-8.3,9.9l48.8,240.6c1.4,6.9,7.8,12.1,14.3,11.6l121.1-9.6
				c6.3-0.5,9.9-6.4,8-13.2L261.7,51C260.3,45.8,254.7,41.9,249.2,42.2z"/>
			<path class="st8" d="M246.8,46L148,50.7c-5.3,0.3-8.8,4.6-7.7,9.6L188,292.8c1.4,6.6,7.4,11.7,13.5,11.2l113-8.9
				c5.9-0.5,9.2-6.1,7.4-12.6L258.7,54.6C257.3,49.6,252,45.8,246.8,46z"/>
			<path class="st9" d="M320,292.5c-19.3-8.5-37.6-19.6-53.1-34.2c-35.3-33-63.6-73.7-83.8-112.2c-17-32.4-24.8-64.5-35.3-95.3
				c-5.2,0.4-8.5,4.6-7.5,9.6L188,292.8c1.4,6.6,7.4,11.7,13.5,11.2l113-8.9C316.7,295,318.6,294,320,292.5z"/>
			<path class="st10" d="M212.2,276.5l-16.6,1.2c-2.5,0.2-4.9-1.8-5.5-4.4l-3.6-17.2c-0.5-2.5,1-4.7,3.5-4.9l16.4-1.2
				c2.4-0.2,4.9,1.7,5.4,4.3l3.8,17.2C216.2,274.1,214.7,276.4,212.2,276.5z"/>
			<path class="st11" d="M244.1,274.1l-16.5,1.2c-2.5,0.2-4.9-1.8-5.5-4.3l-3.9-17.2c-0.6-2.5,0.9-4.7,3.4-4.9l16.2-1.2
				c2.4-0.2,4.9,1.7,5.5,4.2l4.1,17.1C248,271.7,246.6,274,244.1,274.1z"/>
			<path class="st12" d="M275.8,271.8l-16.3,1.2c-2.4,0.2-4.9-1.8-5.5-4.3l-4.1-17.1c-0.6-2.5,0.8-4.7,3.3-4.9l16.1-1.2
				c2.4-0.2,4.9,1.7,5.5,4.2l4.4,17C279.6,269.4,278.2,271.6,275.8,271.8z"/>
			<path class="st13" d="M307.1,269.4l-16.2,1.2c-2.4,0.2-4.9-1.7-5.6-4.3l-4.4-17c-0.7-2.5,0.8-4.7,3.1-4.8l16-1.2
				c2.4-0.2,4.9,1.7,5.5,4.2l4.6,16.9C310.9,267,309.6,269.2,307.1,269.4z"/>
			<g>
				<path class="st14" d="M184,89.2l-2.3,1.6c-0.1,0.1-0.2,0.1-0.3,0.1c-0.2,0-0.5-0.1-0.6-0.3c-0.3-0.3-0.2-0.7,0.1-0.8l3.1-2.2
					c0.3-0.2,0.7-0.1,0.9,0.2c0.1,0.1,0.2,0.3,0.2,0.4l3.7,16.3c0.1,0.3-0.1,0.6-0.5,0.6c-0.3,0-0.7-0.2-0.8-0.6L184,89.2z"/>
				<path class="st14" d="M193.3,103.7l7-8c0.8-1,1.1-2.2,0.8-3.5c-0.3-1.1-0.9-2.1-2-3c-1.2-0.9-2.6-1.4-3.9-1.3
					c-1.2,0.1-2.2,0.5-3,1.3l-0.7,0.8c-0.2,0.3-0.6,0.3-0.9,0c-0.3-0.2-0.4-0.6-0.2-0.9l0.7-0.9c0.9-1,2.3-1.6,3.8-1.7
					c1.6-0.1,3.4,0.4,4.9,1.6c1.3,1,2.2,2.4,2.5,3.8c0.4,1.6,0.1,3.2-1,4.4l-6,6.8l8.8-0.5c0.3,0,0.7,0.2,0.8,0.6
					c0.1,0.3-0.1,0.6-0.5,0.6l-10.4,0.6l-0.1,0c-0.2,0-0.4,0-0.5-0.2C193.2,104.4,193.1,104,193.3,103.7z"/>
				<path class="st14" d="M208.4,90.7c0.7,0,1.5,0.5,1.6,1.2c0.2,0.7-0.3,1.3-1,1.3c-0.7,0-1.5-0.5-1.6-1.2
					C207.2,91.3,207.6,90.7,208.4,90.7z M211,101.3c0.7,0,1.5,0.5,1.6,1.2c0.2,0.7-0.3,1.3-1,1.3c-0.7,0-1.5-0.5-1.6-1.2
					C209.8,101.9,210.2,101.3,211,101.3z"/>
				<path class="st14" d="M214.9,87.5l-2.3,1.6c-0.1,0.1-0.2,0.1-0.3,0.1c-0.2,0-0.5-0.1-0.6-0.3c-0.3-0.3-0.2-0.7,0-0.8l3.1-2.2
					c0.3-0.2,0.7-0.1,0.9,0.2c0.1,0.1,0.2,0.3,0.2,0.4l4,16.2c0.1,0.3-0.1,0.6-0.5,0.6c-0.3,0-0.7-0.2-0.8-0.6L214.9,87.5z"/>
				<path class="st14" d="M224.4,102l6.8-7.9c0.8-1,1-2.2,0.7-3.4c-0.3-1.1-1-2.1-2-2.9c-1.2-0.9-2.6-1.4-3.9-1.3
					c-1.2,0.1-2.2,0.5-2.9,1.3l-0.7,0.8c-0.2,0.3-0.6,0.3-0.9,0c-0.3-0.2-0.4-0.6-0.2-0.9l0.7-0.8c0.9-1,2.3-1.6,3.7-1.7
					c1.6-0.1,3.4,0.4,4.9,1.6c1.4,1,2.2,2.4,2.6,3.7c0.4,1.6,0.1,3.1-0.9,4.4l-5.8,6.8l8.8-0.5c0.3,0,0.7,0.2,0.8,0.6
					c0.1,0.3-0.1,0.6-0.5,0.6l-10.4,0.6l-0.1,0c-0.2,0-0.4,0-0.5-0.2C224.3,102.7,224.2,102.3,224.4,102z"/>
			</g>
			<path class="st15" d="M246.8,46l-80.5,3.8c20.4,0.9,40.6,1.5,60.8,1.7c7.8,0.1,17.1,0.8,22.6,6.9c1.7,1.9,2.8,4.1,3.9,6.3
				c7.6,15.7,13.9,32.1,20.4,48.7c1.2,3.2,2.5,6.4,3.8,9.7l-19-68.6C257.3,49.6,252,45.8,246.8,46z"/>
			<path class="st16" d="M199.9,266.8c-3.7-2.4-7.3-5.3-10-8.8c-1.1-1.5-2.1-3.1-2.9-4.8c-0.5,0.8-0.7,1.9-0.4,3l3.6,17.2
				c0.5,2.6,3,4.6,5.5,4.4l16.6-1.2c1.6-0.1,2.8-1.1,3.3-2.5C210.1,272.5,204.8,270,199.9,266.8z"/>
			<path class="st17" d="M234.4,265.4c-6.2-3.7-11.6-9.3-14.7-15.7c-1.2,0.9-1.8,2.4-1.4,4.1l3.9,17.2c0.6,2.6,3,4.5,5.5,4.3
				l16.5-1.2c1.9-0.1,3.2-1.6,3.4-3.4C243,269.7,238.5,267.9,234.4,265.4z"/>
			<path class="st18" d="M272.6,267.1c-8.7-4.3-16.5-11.1-22.2-19c-0.7,0.9-1.1,2.2-0.7,3.6l4.1,17.1c0.6,2.6,3.1,4.5,5.5,4.3
				l16.3-1.2c1.4-0.1,2.5-0.9,3-2.1C276.7,268.9,274.6,268.1,272.6,267.1z"/>
			<path class="st19" d="M309.2,268.5c-0.6-0.3-1.2-0.6-1.8-0.9c-9.1-5.1-17-12.7-23.9-20.7c-0.5-0.5-0.9-1.1-1.4-1.7
				c-1.2,0.9-1.7,2.4-1.3,4.1l4.4,17c0.7,2.6,3.2,4.5,5.6,4.3l16.2-1.2C308,269.3,308.7,269,309.2,268.5z"/>
			<path class="st20" d="M274.6,249.8c-0.6-2.5-3.1-4.4-5.5-4.2l-16.1,1.2c-0.1,0-0.1,0-0.2,0c3.5,0.5,7.1,0.7,10.5,0.4
				c2.3-0.2,4.9-0.6,7,1c1.1,0.8,1.9,2.1,2.6,3.3c1.3,2.3,2.7,4.7,4,7L274.6,249.8z"/>
			<path class="st21" d="M300.1,243.4l-14.7,1.1c3.7,0.4,7.5,0.8,11.2,1.2c1.8,0.2,3.7,0.4,5.3,1.6c2.5,1.9,2.9,5.4,4.2,8.2
				c0.8,1.6,1.8,3.1,2.9,4.5l-3.4-12.4C304.9,245.1,302.5,243.2,300.1,243.4z"/>
			<path class="st22" d="M246.7,266.2l-3.4-14.1c-0.6-2.5-3-4.4-5.5-4.2l-16.1,1.2c3.2,0.2,6.3,0.5,9.5,0.7c2.4,0.2,5,0.4,7.2,1.9
				c2.5,1.7,3.8,4.6,5.1,7.3C244.6,261.3,245.6,263.8,246.7,266.2z"/>
			<path class="st23" d="M206.4,250.1l-10.4,0.7c2.5,0.3,5,0.5,7.6,0.8c1.2,0.1,2.4,0.2,3.6,0.8c2.6,1.3,3.9,4.4,4.9,7.2
				c1.1,3.1,2.1,6.3,3.1,9.4l-3.3-14.7C211.3,251.8,208.9,249.9,206.4,250.1z"/>
			<g>
				<path class="st14" d="M185.3,112.3c-0.4,0-0.8,0-1.2-0.1l0.1-0.3c0.4,0.1,0.7,0.2,1.1,0.2c0.5,0,1.1-0.2,0.9-1
					c-0.1-0.6-0.7-0.8-1.3-0.9c-0.6-0.2-1.3-0.4-1.4-1.1c-0.2-0.8,0.4-1.1,1.2-1.1c0.3,0,0.7,0,1.1,0.1l-0.1,0.3
					c-0.3-0.1-0.6-0.2-1-0.2c-0.6,0-1,0.3-0.9,0.9c0.1,0.5,0.6,0.7,1.2,0.8c0.7,0.2,1.4,0.4,1.6,1.2
					C186.7,111.9,186.1,112.2,185.3,112.3z"/>
				<path class="st14" d="M189.8,111.9l-0.2-0.5c-0.1,0.2-0.2,0.6-0.8,0.6c-0.7,0-1.1-0.4-1.2-1.1l-0.4-1.9l0.3,0l0.4,1.8
					c0.1,0.5,0.3,1,1,1c0.4,0,0.7-0.4,0.7-0.7l-0.5-2.2l0.3,0l0.5,2.3c0.1,0.2,0.1,0.4,0.2,0.6L189.8,111.9z"/>
				<path class="st14" d="M192.9,111.7l-0.4-1.8c-0.1-0.5-0.3-1-1-1c-0.4,0-0.7,0.4-0.7,0.7l0.5,2.2l-0.3,0l-0.5-2.3
					c-0.1-0.2-0.1-0.4-0.2-0.6l0.2,0l0.2,0.5c0.1-0.1,0.2-0.6,0.8-0.6c0.8,0,1.1,0.4,1.3,1.1l0.4,1.9L192.9,111.7z"/>
				<path class="st14" d="M196.2,111.6l-0.2-0.4c-0.1,0.2-0.4,0.5-0.8,0.5c0,0,0,0,0,0c-0.9,0-1.4-0.6-1.6-1.5
					c-0.2-0.8,0.1-1.6,0.8-1.6c0.5,0,0.9,0.3,1,0.5l-0.4-1.8l0.3,0l0.8,3.4c0.1,0.4,0.1,0.5,0.3,0.9L196.2,111.6z M195.6,109.4
					c-0.1-0.2-0.5-0.7-1.1-0.6c-0.6,0-0.8,0.5-0.6,1.4c0.2,0.8,0.6,1.3,1.3,1.3c0.3,0,0.6-0.2,0.7-0.5L195.6,109.4z"/>
				<path class="st14" d="M199.3,111.4c0-0.1-0.2-0.3-0.2-0.4c-0.1,0.3-0.4,0.5-0.8,0.5c-0.5,0-1.1-0.2-1.3-0.8
					c-0.1-0.6,0.1-1,1.4-1.1l0.3,0l-0.1-0.3c-0.1-0.5-0.4-0.8-0.9-0.7c-0.4,0-0.7,0.2-1,0.3l-0.2-0.2c0.3-0.1,0.6-0.3,1.1-0.3
					c0.6,0,1.1,0.2,1.2,0.9l0.3,1.2c0.1,0.2,0.2,0.5,0.3,0.9L199.3,111.4z M198.8,109.8l-0.2,0c-1.1,0.1-1.4,0.3-1.3,0.8
					c0.1,0.4,0.4,0.6,0.9,0.6c0.4,0,0.7-0.2,0.8-0.5L198.8,109.8z"/>
				<path class="st14" d="M201.6,111.7c-0.1,0.5-0.2,0.6-0.6,0.8l-0.1-0.2c0.4-0.1,0.5-0.3,0.5-0.5l0.1-0.7l-1.9-2.8l0.3,0l1.7,2.5
					l0.3-2.6l0.3,0L201.6,111.7z"/>
				<path class="st14" d="M203.3,111.8l-0.2,0l0.1-1.2l0.4,0L203.3,111.8z"/>
				<path class="st14" d="M209.1,110.8l-3.2-3.7l0.9,3.8l-0.3,0l-1-4.2l0.4,0l3.2,3.7l-0.9-3.8l0.3,0l1,4.2L209.1,110.8z"/>
				<path class="st14" d="M211.9,110.8c-1,0.1-1.5-0.6-1.7-1.5c-0.2-0.8-0.1-1.5,0.9-1.6c1-0.1,1.4,0.6,1.6,1.5
					C213,110,212.9,110.7,211.9,110.8z M211.2,107.9c-0.7,0-0.8,0.6-0.7,1.4c0.2,0.7,0.5,1.3,1.3,1.3c0.8,0,0.8-0.7,0.7-1.4
					C212.3,108.4,212,107.8,211.2,107.9z"/>
				<path class="st14" d="M215,110.5l-0.2,0l-1.9-2.9l0.3,0l1.6,2.5l0.4-2.6l0.3,0L215,110.5z"/>
				<path class="st14" d="M216.7,109c0.2,0.7,0.5,1.3,1.3,1.2c0.4,0,0.6-0.1,0.9-0.3l0.1,0.2c-0.3,0.2-0.7,0.3-1,0.3
					c-0.9,0-1.4-0.6-1.6-1.4c-0.2-0.7-0.1-1.6,0.8-1.6c1-0.1,1.4,0.7,1.6,1.5L216.7,109z M217.2,107.5c-0.6,0-0.8,0.5-0.6,1.2
					l1.9-0.1C218.3,107.9,217.9,107.5,217.2,107.5z"/>
				<path class="st14" d="M223.8,110l-0.5-1.9c-0.1-0.4-0.3-0.9-1-0.9c-0.4,0-0.6,0.4-0.7,0.7l0.5,2.1l-0.3,0l-0.5-1.9
					c-0.1-0.6-0.5-0.9-1-0.9c-0.4,0-0.6,0.4-0.7,0.7l0.5,2.2l-0.3,0l-0.6-2.3c-0.1-0.2-0.1-0.5-0.2-0.7l0.2,0l0.2,0.5
					c0.1-0.2,0.3-0.6,0.8-0.6c0.6,0,0.9,0.3,1.1,0.6c0.1-0.3,0.3-0.7,0.8-0.7c0.7,0,1.1,0.3,1.3,1.1l0.5,1.9L223.8,110z"/>
				<path class="st14" d="M226.2,110c-0.4,0-0.8-0.2-1-0.4l0,0.4l-0.2,0c-0.1-0.4-0.1-0.5-0.2-0.9l-0.8-3.3l0.3,0l0.4,1.8
					c0.1-0.2,0.3-0.6,0.8-0.6c0.8,0,1.3,0.6,1.5,1.5C227.2,109.2,227.1,109.9,226.2,110z M225.5,107.1c-0.6,0-0.7,0.6-0.7,0.7
					l0.4,1.5c0.3,0.3,0.6,0.5,1,0.4c0.7,0,0.8-0.6,0.6-1.4C226.5,107.4,226,107.1,225.5,107.1z"/>
				<path class="st14" d="M228,108.4c0.2,0.7,0.5,1.3,1.3,1.2c0.4,0,0.6-0.1,0.9-0.3l0.1,0.2c-0.3,0.2-0.7,0.3-1,0.3
					c-0.9,0-1.4-0.6-1.6-1.4c-0.2-0.7-0.1-1.6,0.8-1.6c1-0.1,1.4,0.7,1.6,1.5L228,108.4z M228.6,106.9c-0.6,0-0.8,0.5-0.6,1.2
					l1.9-0.1C229.6,107.3,229.2,106.9,228.6,106.9z"/>
				<path class="st14" d="M232.1,106.9c-0.2-0.1-0.4-0.1-0.5-0.1c-0.4,0-0.5,0.6-0.5,0.8l0.5,2.1l-0.3,0l-0.6-2.3
					c-0.1-0.3-0.2-0.5-0.2-0.7l0.2,0l0.2,0.6c0.1-0.2,0.2-0.6,0.6-0.7c0.2,0,0.4,0,0.6,0.1L232.1,106.9z"/>
				<path class="st14" d="M236.2,109.4l-0.9-3.5l-0.6,0.7l-0.2-0.3l0.7-0.8l0.3,0l1,3.9L236.2,109.4z"/>
				<path class="st14" d="M238.8,109.2l-0.4,0l0.7-3.8l-2.1,0.1l-0.1-0.2l2.3-0.1l0.2,0.3L238.8,109.2z"/>
			</g>
			<path class="st14" d="M216.5,249.4c0.8,3.7-1.4,6.8-4.9,7.1c-3.5,0.3-7.1-2.5-7.9-6.2c-0.8-3.6,1.4-6.8,4.9-7
				C212.2,243,215.7,245.7,216.5,249.4z"/>
			<path class="st14" d="M279.2,244.9c0.9,3.6-1.1,6.8-4.6,7c-3.5,0.3-7-2.5-8-6.1c-0.9-3.6,1.2-6.7,4.6-7
				C274.7,238.5,278.3,241.2,279.2,244.9z"/>
			<g>
				<g>
					<path class="st9" d="M213.4,251.2c0.1,0.4-0.2,0.7-0.5,0.8l-0.1,0l0.2,1c0.1,0.4-0.1,0.8-0.5,0.8c-0.4,0-0.8-0.3-0.9-0.7
						l-0.2-1l-4,0.3l0,0l0,0c-0.2,0-0.3,0-0.5-0.1c-0.4-0.2-0.5-0.7-0.3-1l3.4-6.4c0,0,0,0,0,0c0,0,0,0,0-0.1c0,0,0,0,0.1,0
						c0,0,0,0,0,0c0,0,0,0,0.1,0c0,0,0,0,0,0c0,0,0,0,0.1,0c0,0,0,0,0,0c0,0,0.1,0,0.1,0c0,0,0,0,0,0c0,0,0,0,0,0c0,0,0.1,0,0.1,0
						c0,0,0,0,0.1,0c0,0,0.1,0,0.1,0c0,0,0,0,0.1,0c0,0,0.1,0,0.1,0c0,0,0,0,0.1,0c0,0,0,0,0,0c0,0,0,0,0,0c0,0,0,0,0.1,0
						c0,0,0,0,0.1,0c0,0,0,0,0.1,0.1c0,0,0,0,0,0.1c0,0,0,0,0,0.1c0,0,0,0,0,0.1c0,0,0,0,0,0.1c0,0,0,0,0,0.1c0,0,0,0,0,0l1.2,5.3
						l0.1,0C213,250.5,213.4,250.9,213.4,251.2z M210.3,247.4l-1.8,3.4l2.5-0.2L210.3,247.4z"/>
				</g>
			</g>
			<g>
				<g>
					<path class="st8" d="M274.9,242l-1.1,7.9c0,0.3-0.2,0.5-0.5,0.5c-0.1,0-0.2,0-0.3,0c-0.4-0.1-0.7-0.6-0.6-0.9l1-6.9l-3.2,0.2
						c-0.4,0-0.8-0.3-0.9-0.7c-0.1-0.4,0.1-0.7,0.5-0.8l4.3-0.3c0,0,0.1,0,0.1,0c0.1,0,0.2,0.1,0.3,0.1c0,0,0,0,0,0c0,0,0,0,0.1,0
						c0,0,0,0,0.1,0c0,0,0,0,0.1,0c0,0,0,0.1,0,0.1c0,0,0,0,0.1,0.1c0,0,0,0.1,0,0.1c0,0,0,0,0,0.1c0,0.1,0.1,0.2,0.1,0.3
						C274.9,241.9,274.9,241.9,274.9,242z"/>
				</g>
			</g>
			<path class="st24" d="M259.5,294l-5,0.4c-0.7,0.1-1.5-0.5-1.7-1.3l-1.3-5.6c-0.2-0.8,0.3-1.5,1-1.5l4.9-0.4
				c0.7-0.1,1.5,0.5,1.7,1.3l1.4,5.6C260.7,293.2,260.3,293.9,259.5,294z"/>
			<polygon class="st24" points="221.6,296.4 224,288.6 229.8,295.8 			"/>
			<polygon class="st24" points="292.9,291.4 284.9,287.7 290.7,282.9 			"/>
		</g>
		<path class="st9" d="M265.3,306.2c-3-0.2-6,0-9,0.3c-1.6,0.1-6.2-0.2-6.6,2c-0.5,2.6,2.2,2.3,3.9,2.3c2.5,0,13.3,1.1,13.6-2.6
			C267.2,307.2,266.3,306.3,265.3,306.2z"/>
	</g>
	<polygon class="st14" points="94.8,258.6 66.3,267.6 78.8,279.1 	"/>
	<polygon class="st14" points="88.3,59.6 70.8,46.1 85.3,37.6 	"/>
	<polygon class="st14" points="347.8,233.6 358.8,246.1 364.3,234.6 	"/>
	<polygon class="st14" points="13.3,203.1 -7.3,214.1 -13.3,196.6 	"/>
	<polygon class="st14" points="99.3,63.6 97.3,48.1 108.8,48.6 	"/>
	<polygon class="st14" points="364.3,61.6 373.3,40.1 385.8,51.6 	"/>
	<polygon class="st14" points="347.4,246.6 360.9,271.1 346.4,272.6 	"/>
	<polygon class="st14" points="105.3,263.1 96.8,277.6 108.3,281.1 	"/>
	<path class="st1" d="M25.5,253.6c-3,3-6,5.9-8.9,8.9c-1.9,1.9-4.5,3.9-5.9,6.3c-0.8,0.8-1.6,1.7-2.4,2.5c-2.5,2.6,1.4,6.5,3.9,3.9
		c0.8-0.8,1.7-1.7,2.5-2.5c2.2-1.3,3.9-3.5,5.6-5.2c3.2-3.2,6.3-6.4,9.5-9.6C32.6,255.2,28.3,250.8,25.5,253.6z"/>
	<path class="st1" d="M54.1,63.7c-3,3-6,5.9-8.9,8.9c-1.9,1.9-4.5,3.9-5.9,6.3c-0.8,0.8-1.6,1.7-2.4,2.5c-2.5,2.6,1.4,6.5,3.9,3.9
		c0.8-0.8,1.7-1.7,2.5-2.5c2.2-1.3,3.9-3.5,5.6-5.2c3.2-3.2,6.3-6.4,9.5-9.6C61.3,65.3,56.9,60.9,54.1,63.7z"/>
	<path class="st1" d="M336.1,313.7c-3,3-6,5.9-8.9,8.9c-1.9,1.9-4.5,3.9-5.9,6.3c-0.8,0.8-1.6,1.7-2.4,2.5c-2.5,2.6,1.4,6.5,3.9,3.9
		c0.8-0.8,1.7-1.7,2.5-2.5c2.2-1.3,3.9-3.5,5.6-5.2c3.2-3.2,6.3-6.4,9.5-9.6C343.3,315.3,338.9,310.9,336.1,313.7z"/>
	<path class="st1" d="M352,19.6c-1.7,1.7-3.4,3.4-5.1,5.1c-1.1,1.1-2.6,2.2-3.4,3.6c-0.5,0.5-0.9,0.9-1.4,1.4
		c-1.4,1.5,0.8,3.7,2.3,2.3c0.5-0.5,1-0.9,1.5-1.4c1.2-0.7,2.3-2,3.2-3c1.8-1.8,3.6-3.7,5.4-5.5C356.1,20.5,353.6,18,352,19.6z"/>
	<path class="st1" d="M204.7,20.7c-1.7,1.7-3.4,3.4-5.1,5.1c-1.1,1.1-2.6,2.2-3.4,3.6c-0.5,0.5-0.9,0.9-1.4,1.4
		c-1.4,1.5,0.8,3.7,2.3,2.3c0.5-0.5,1-0.9,1.5-1.4c1.2-0.7,2.3-2,3.2-3c1.8-1.8,3.6-3.7,5.4-5.5C208.8,21.6,206.3,19.1,204.7,20.7z"
		/>
	<path class="st1" d="M394,183.4c-1.7,1.7-3.4,3.4-5.1,5.1c-1.1,1.1-2.6,2.2-3.4,3.6c-0.5,0.5-0.9,0.9-1.4,1.4
		c-1.4,1.5,0.8,3.7,2.3,2.3c0.5-0.5,1-0.9,1.5-1.4c1.2-0.7,2.3-2,3.2-3c1.8-1.8,3.6-3.7,5.4-5.5C398.1,184.2,395.6,181.8,394,183.4z
		"/>
</g>
</svg>
